<svg width="15" height="15" viewBox="0 0 15 15" fill="none" xmlns="http://www.w3.org/2000/svg">
<path d="M12.685 6.12247L7.99747 10.81C7.93214 10.8755 7.85452 10.9275 7.76906 10.963C7.68359 10.9985 7.59196 11.0168 7.49942 11.0168C7.40688 11.0168 7.31525 10.9985 7.22978 10.963C7.14432 10.9275 7.0667 10.8755 7.00137 10.81L2.31387 6.12247C2.18178 5.99038 2.10757 5.81123 2.10757 5.62443C2.10757 5.43762 2.18178 5.25847 2.31387 5.12638C2.44596 4.99429 2.62512 4.92008 2.81192 4.92008C2.99872 4.92008 3.17788 4.99429 3.30997 5.12638L7.50001 9.31642L11.69 5.12579C11.8221 4.9937 12.0013 4.91949 12.1881 4.91949C12.3749 4.91949 12.554 4.9937 12.6861 5.12579C12.8182 5.25788 12.8924 5.43704 12.8924 5.62384C12.8924 5.81064 12.8182 5.9898 12.6861 6.12189L12.685 6.12247Z" fill="#1E1E1E"/>
</svg>
