<svg width="330" height="279" viewBox="0 0 330 279" fill="none" xmlns="http://www.w3.org/2000/svg">
<path d="M196.726 59.7451H230.764C267.009 59.7451 301.142 76.7973 322.908 105.779L324.341 107.687C338.399 126.407 346 149.185 346 172.596V173.319C346 197.419 337.79 220.8 322.723 239.608L322.424 239.981C311.716 253.347 297.876 263.866 282.132 270.604C252.815 283.152 219.364 281.573 191.36 266.318L187.728 264.34C151.507 244.61 128.966 206.662 128.966 165.417V127.504L0 127.504L0 59.7441L128.966 59.7441L128.966 -69L196.726 -69L196.726 59.7451ZM196.726 165.417C196.726 181.852 205.708 196.973 220.141 204.835L223.774 206.813C233.553 212.14 245.233 212.691 255.47 208.311C260.967 205.958 265.801 202.284 269.54 197.617L269.839 197.243C275.277 190.455 278.24 182.017 278.24 173.319V172.596C278.24 163.861 275.404 155.363 270.159 148.379L268.727 146.471C259.759 134.53 245.696 127.505 230.764 127.505H196.726V165.417Z" fill="white" fill-opacity="0.3"/>
</svg>
